<svg xmlns="http://www.w3.org/2000/svg" viewBox="0 0 383.654 75">
  <g>
    <rect x="0.5" y="0.5" width="53.808" height="74" rx="8.712" fill="blue"/>
    <path d="M57.6,26a8.222,8.222,0,0,1,8.213,8.213V90.787A8.222,8.222,0,0,1,57.6,99H21.213A8.222,8.222,0,0,1,13,90.787V34.213A8.222,8.222,0,0,1,21.213,26H57.6m0-1H21.213A9.24,9.24,0,0,0,12,34.213V90.787A9.24,9.24,0,0,0,21.213,100H57.6a9.24,9.24,0,0,0,9.213-9.213V34.213A9.24,9.24,0,0,0,57.6,25Z" transform="translate(-12 -25)"/>
  </g>
  <g>
    <path d="M64.021.5H100.4a8.712,8.712,0,0,1,8.712,8.712V65.788A8.712,8.712,0,0,1,100.4,74.5H64.02a8.712,8.712,0,0,1-8.712-8.712V9.213A8.713,8.713,0,0,1,64.021.5Z" fill="blue"/>
    <path d="M112.4,26a8.222,8.222,0,0,1,8.212,8.213V90.787A8.222,8.222,0,0,1,112.4,99H76.02a8.222,8.222,0,0,1-8.212-8.213V34.213A8.222,8.222,0,0,1,76.02,26H112.4m0-1H76.02a9.239,9.239,0,0,0-9.212,9.213V90.787A9.239,9.239,0,0,0,76.02,100H112.4a9.239,9.239,0,0,0,9.212-9.213V34.213A9.239,9.239,0,0,0,112.4,25Z" transform="translate(-12 -25)"/>
  </g>
  <g>
    <path d="M118.828.5H155.21a8.712,8.712,0,0,1,8.712,8.712V65.788A8.712,8.712,0,0,1,155.21,74.5H118.828a8.712,8.712,0,0,1-8.712-8.712V9.213A8.713,8.713,0,0,1,118.828.5Z" fill="#fff"/>
    <path d="M167.21,26a8.222,8.222,0,0,1,8.213,8.213V90.787A8.222,8.222,0,0,1,167.21,99H130.828a8.223,8.223,0,0,1-8.213-8.213V34.213A8.223,8.223,0,0,1,130.828,26H167.21m0-1H130.828a9.24,9.24,0,0,0-9.213,9.213V90.787A9.24,9.24,0,0,0,130.828,100H167.21a9.24,9.24,0,0,0,9.213-9.213V34.213A9.24,9.24,0,0,0,167.21,25Z" transform="translate(-12 -25)"/>
  </g>
  <g>
    <path d="M173.636.5h36.382a8.712,8.712,0,0,1,8.712,8.712V65.788a8.712,8.712,0,0,1-8.712,8.712H173.635a8.712,8.712,0,0,1-8.712-8.712V9.213A8.713,8.713,0,0,1,173.636.5Z" fill="blue"/>
    <path d="M222.018,26a8.222,8.222,0,0,1,8.213,8.213V90.787A8.222,8.222,0,0,1,222.018,99H185.636a8.222,8.222,0,0,1-8.213-8.213V34.213A8.222,8.222,0,0,1,185.636,26h36.382m0-1H185.636a9.24,9.24,0,0,0-9.213,9.213V90.787A9.24,9.24,0,0,0,185.636,100h36.382a9.24,9.24,0,0,0,9.213-9.213V34.213A9.24,9.24,0,0,0,222.018,25Z" transform="translate(-12 -25)"/>
  </g>
  <g>
    <path d="M228.443.5h36.382a8.712,8.712,0,0,1,8.712,8.712V65.788a8.712,8.712,0,0,1-8.712,8.712H228.443a8.712,8.712,0,0,1-8.712-8.712V9.213A8.713,8.713,0,0,1,228.443.5Z" fill="blue"/>
    <path d="M276.826,26a8.222,8.222,0,0,1,8.212,8.213V90.787A8.222,8.222,0,0,1,276.826,99H240.443a8.222,8.222,0,0,1-8.212-8.213V34.213A8.222,8.222,0,0,1,240.443,26h36.383m0-1H240.443a9.239,9.239,0,0,0-9.212,9.213V90.787A9.239,9.239,0,0,0,240.443,100h36.383a9.239,9.239,0,0,0,9.212-9.213V34.213A9.239,9.239,0,0,0,276.826,25Z" transform="translate(-12 -25)"/>
  </g>
  <g>
    <path d="M283.251.5h36.382a8.712,8.712,0,0,1,8.712,8.712V65.788a8.712,8.712,0,0,1-8.712,8.712H283.25a8.712,8.712,0,0,1-8.712-8.712V9.213A8.713,8.713,0,0,1,283.251.5Z" fill="blue"/>
    <path d="M331.634,26a8.222,8.222,0,0,1,8.212,8.213V90.787A8.222,8.222,0,0,1,331.634,99H295.251a8.223,8.223,0,0,1-8.213-8.213V34.213A8.223,8.223,0,0,1,295.251,26h36.383m0-1H295.251a9.24,9.24,0,0,0-9.213,9.213V90.787A9.24,9.24,0,0,0,295.251,100h36.383a9.24,9.24,0,0,0,9.212-9.213V34.213A9.24,9.24,0,0,0,331.634,25Z" transform="translate(-12 -25)"/>
  </g>
  <g>
    <path d="M338.059.5h36.383a8.712,8.712,0,0,1,8.712,8.712V65.788a8.712,8.712,0,0,1-8.712,8.712H338.058a8.712,8.712,0,0,1-8.712-8.712V9.213A8.713,8.713,0,0,1,338.059.5Z" fill="blue"/>
    <path d="M386.441,26a8.222,8.222,0,0,1,8.213,8.213V90.787A8.222,8.222,0,0,1,386.441,99H350.059a8.222,8.222,0,0,1-8.213-8.213V34.213A8.222,8.222,0,0,1,350.059,26h36.382m0-1H350.059a9.24,9.24,0,0,0-9.213,9.213V90.787A9.24,9.24,0,0,0,350.059,100h36.382a9.24,9.24,0,0,0,9.213-9.213V34.213A9.24,9.24,0,0,0,386.441,25Z" transform="translate(-12 -25)"/>
  </g>
  <text transform="translate(173.698 52.271)" font-size="53" fill="#fff" font-family="MyriadPro-Regular, Myriad Pro">D</text>
  <text transform="translate(229.698 52.271)" font-size="53" fill="#fff" font-family="MyriadPro-Regular, Myriad Pro">O</text>
  <text transform="translate(284.698 52.271)" font-size="53" fill="#fff" font-family="MyriadPro-Regular, Myriad Pro">R</text>
  <text transform="translate(338.698 52.271)" font-size="53" fill="#fff" font-family="MyriadPro-Regular, Myriad Pro">A</text>
</svg>
